<mxfile host="Electron" modified="2024-03-28T17:49:50.865Z" agent="Mozilla/5.0 (Windows NT 10.0; Win64; x64) AppleWebKit/537.36 (KHTML, like Gecko) draw.io/24.1.0 Chrome/120.0.6099.109 Electron/28.1.0 Safari/537.36" etag="mynBF2pe_HZmBHzk3oIT" version="24.1.0" type="device">
  <diagram name="Página-1" id="follG_B7FcUuCE3MsLmr">
    <mxGraphModel dx="1420" dy="830" grid="1" gridSize="10" guides="1" tooltips="1" connect="1" arrows="1" fold="1" page="1" pageScale="1" pageWidth="827" pageHeight="1169" background="#CCE5FF" math="0" shadow="0">
      <root>
        <mxCell id="0" />
        <mxCell id="1" parent="0" />
        <mxCell id="v8Acyuk8rxpxtJH2wYaN-1" value="&lt;b style=&quot;font-size: 16px;&quot;&gt;&lt;font face=&quot;Comic Sans MS&quot; color=&quot;#000000&quot;&gt;3 Hacer un programa para ingresar por teclado un número y luego informar&amp;nbsp; por&amp;nbsp; &amp;nbsp; pantalla con un cartel aclaratorio si el mismo es par o impar.&lt;/font&gt;&lt;/b&gt;" style="text;whiteSpace=wrap;html=1;fontFamily=Architects Daughter;fontSource=https%3A%2F%2Ffonts.googleapis.com%2Fcss%3Ffamily%3DArchitects%2BDaughter;" vertex="1" parent="1">
          <mxGeometry x="70" y="20" width="640" height="80" as="geometry" />
        </mxCell>
        <mxCell id="v8Acyuk8rxpxtJH2wYaN-32" value="" style="group" vertex="1" connectable="0" parent="1">
          <mxGeometry x="185" y="140" width="365" height="410" as="geometry" />
        </mxCell>
        <mxCell id="v8Acyuk8rxpxtJH2wYaN-4" value="" style="shape=trapezoid;perimeter=trapezoidPerimeter;whiteSpace=wrap;html=1;fixedSize=1;rounded=0;labelBackgroundColor=none;strokeColor=#121211;strokeWidth=2;align=center;verticalAlign=middle;fontFamily=Helvetica;fontSize=12;fontColor=default;fillColor=#d5e8d4;direction=west;container=1;aspect=fixed;" vertex="1" parent="v8Acyuk8rxpxtJH2wYaN-32">
          <mxGeometry x="110" y="70" width="130" height="40" as="geometry">
            <mxRectangle x="-1020" y="-650" width="50" height="40" as="alternateBounds" />
          </mxGeometry>
        </mxCell>
        <mxCell id="v8Acyuk8rxpxtJH2wYaN-6" value="&lt;b&gt;&lt;font face=&quot;Comic Sans MS&quot; color=&quot;#000000&quot; style=&quot;font-size: 16px;&quot;&gt;numero&lt;/font&gt;&lt;/b&gt;" style="text;strokeColor=none;align=center;fillColor=none;html=1;verticalAlign=middle;whiteSpace=wrap;rounded=0;fontFamily=Architects Daughter;fontSource=https%3A%2F%2Ffonts.googleapis.com%2Fcss%3Ffamily%3DArchitects%2BDaughter;aspect=fixed;" vertex="1" parent="v8Acyuk8rxpxtJH2wYaN-4">
          <mxGeometry x="10" y="5" width="110" height="30" as="geometry" />
        </mxCell>
        <mxCell id="v8Acyuk8rxpxtJH2wYaN-13" value="" style="line;strokeWidth=2;direction=south;html=1;hachureGap=4;fontFamily=Architects Daughter;fontSource=https://fonts.googleapis.com/css?family=Architects+Daughter;strokeColor=#000000;aspect=fixed;" vertex="1" parent="v8Acyuk8rxpxtJH2wYaN-4">
          <mxGeometry x="59" y="-30" width="10" height="30" as="geometry" />
        </mxCell>
        <mxCell id="v8Acyuk8rxpxtJH2wYaN-5" value="" style="rhombus;whiteSpace=wrap;html=1;rounded=0;labelBackgroundColor=none;strokeColor=#0F140C;strokeWidth=2;align=center;verticalAlign=middle;fontFamily=Helvetica;fontSize=12;fontColor=default;fillColor=#d5e8d4;aspect=fixed;" vertex="1" parent="v8Acyuk8rxpxtJH2wYaN-32">
          <mxGeometry x="110" y="150" width="130" height="120" as="geometry" />
        </mxCell>
        <mxCell id="v8Acyuk8rxpxtJH2wYaN-8" value="" style="group;aspect=fixed;" vertex="1" connectable="0" parent="v8Acyuk8rxpxtJH2wYaN-32">
          <mxGeometry x="145" width="60" height="40" as="geometry" />
        </mxCell>
        <mxCell id="v8Acyuk8rxpxtJH2wYaN-2" value="" style="strokeWidth=2;html=1;shape=mxgraph.flowchart.start_2;whiteSpace=wrap;rounded=0;labelBackgroundColor=none;strokeColor=#000000;align=center;verticalAlign=middle;fontFamily=Helvetica;fontSize=12;fontColor=default;fillColor=#d5e8d4;aspect=fixed;" vertex="1" parent="v8Acyuk8rxpxtJH2wYaN-8">
          <mxGeometry x="10" width="40" height="40" as="geometry" />
        </mxCell>
        <mxCell id="v8Acyuk8rxpxtJH2wYaN-7" value="&lt;b&gt;&lt;font color=&quot;#000000&quot; style=&quot;font-size: 17px;&quot; face=&quot;Comic Sans MS&quot;&gt;I&lt;/font&gt;&lt;/b&gt;" style="text;strokeColor=none;align=center;fillColor=none;html=1;verticalAlign=middle;whiteSpace=wrap;rounded=0;fontFamily=Architects Daughter;fontSource=https%3A%2F%2Ffonts.googleapis.com%2Fcss%3Ffamily%3DArchitects%2BDaughter;aspect=fixed;" vertex="1" parent="v8Acyuk8rxpxtJH2wYaN-8">
          <mxGeometry y="5" width="60" height="30" as="geometry" />
        </mxCell>
        <mxCell id="v8Acyuk8rxpxtJH2wYaN-9" value="&lt;font face=&quot;Comic Sans MS&quot; color=&quot;#000000&quot;&gt;&lt;span style=&quot;font-size: 14px;&quot;&gt;&lt;b&gt;numero % 2&amp;nbsp;&lt;/b&gt;&lt;/span&gt;&lt;/font&gt;&lt;div&gt;&lt;font face=&quot;Comic Sans MS&quot; color=&quot;#000000&quot;&gt;&lt;span style=&quot;font-size: 14px;&quot;&gt;&lt;b&gt;==&lt;/b&gt;&lt;/span&gt;&lt;/font&gt;&lt;/div&gt;&lt;div&gt;&lt;font face=&quot;Comic Sans MS&quot; color=&quot;#000000&quot;&gt;&lt;span style=&quot;font-size: 14px;&quot;&gt;&lt;b&gt;0&lt;/b&gt;&lt;/span&gt;&lt;/font&gt;&lt;/div&gt;" style="text;strokeColor=none;align=center;fillColor=none;html=1;verticalAlign=middle;whiteSpace=wrap;rounded=0;fontFamily=Architects Daughter;fontSource=https%3A%2F%2Ffonts.googleapis.com%2Fcss%3Ffamily%3DArchitects%2BDaughter;aspect=fixed;" vertex="1" parent="v8Acyuk8rxpxtJH2wYaN-32">
          <mxGeometry x="119" y="190" width="110" height="50" as="geometry" />
        </mxCell>
        <mxCell id="v8Acyuk8rxpxtJH2wYaN-11" value="" style="shape=trapezoid;perimeter=trapezoidPerimeter;whiteSpace=wrap;html=1;fixedSize=1;rounded=0;labelBackgroundColor=none;strokeColor=#0F140C;strokeWidth=2;align=center;verticalAlign=middle;fontFamily=Helvetica;fontSize=12;fontColor=default;fillColor=#d5e8d4;aspect=fixed;" vertex="1" parent="v8Acyuk8rxpxtJH2wYaN-32">
          <mxGeometry y="260" width="110" height="40" as="geometry" />
        </mxCell>
        <mxCell id="v8Acyuk8rxpxtJH2wYaN-17" value="" style="line;strokeWidth=2;html=1;perimeter=backbonePerimeter;points=[];outlineConnect=0;hachureGap=4;fontFamily=Architects Daughter;fontSource=https://fonts.googleapis.com/css?family=Architects+Daughter;strokeColor=#000000;aspect=fixed;" vertex="1" parent="v8Acyuk8rxpxtJH2wYaN-32">
          <mxGeometry x="53" y="337" width="252" height="10" as="geometry" />
        </mxCell>
        <mxCell id="v8Acyuk8rxpxtJH2wYaN-18" value="" style="line;strokeWidth=2;html=1;perimeter=backbonePerimeter;points=[];outlineConnect=0;hachureGap=4;fontFamily=Architects Daughter;fontSource=https://fonts.googleapis.com/css?family=Architects+Daughter;strokeColor=#000000;aspect=fixed;" vertex="1" parent="v8Acyuk8rxpxtJH2wYaN-32">
          <mxGeometry x="240" y="206" width="65" height="10" as="geometry" />
        </mxCell>
        <mxCell id="v8Acyuk8rxpxtJH2wYaN-19" value="" style="line;strokeWidth=2;html=1;perimeter=backbonePerimeter;points=[];outlineConnect=0;hachureGap=4;fontFamily=Architects Daughter;fontSource=https://fonts.googleapis.com/css?family=Architects+Daughter;strokeColor=#000000;aspect=fixed;" vertex="1" parent="v8Acyuk8rxpxtJH2wYaN-32">
          <mxGeometry x="55" y="205" width="55" height="10" as="geometry" />
        </mxCell>
        <mxCell id="v8Acyuk8rxpxtJH2wYaN-20" value="" style="line;strokeWidth=2;direction=south;html=1;hachureGap=4;fontFamily=Architects Daughter;fontSource=https://fonts.googleapis.com/css?family=Architects+Daughter;strokeColor=#000000;aspect=fixed;" vertex="1" parent="v8Acyuk8rxpxtJH2wYaN-32">
          <mxGeometry x="50" y="300" width="10" height="40" as="geometry" />
        </mxCell>
        <mxCell id="v8Acyuk8rxpxtJH2wYaN-21" value="" style="line;strokeWidth=2;direction=south;html=1;hachureGap=4;fontFamily=Architects Daughter;fontSource=https://fonts.googleapis.com/css?family=Architects+Daughter;strokeColor=#000000;aspect=fixed;" vertex="1" parent="v8Acyuk8rxpxtJH2wYaN-32">
          <mxGeometry x="170" y="110" width="10" height="40" as="geometry" />
        </mxCell>
        <mxCell id="v8Acyuk8rxpxtJH2wYaN-23" value="" style="line;strokeWidth=2;direction=south;html=1;hachureGap=4;fontFamily=Architects Daughter;fontSource=https://fonts.googleapis.com/css?family=Architects+Daughter;strokeColor=#000000;aspect=fixed;" vertex="1" parent="v8Acyuk8rxpxtJH2wYaN-32">
          <mxGeometry x="50" y="210" width="10" height="50" as="geometry" />
        </mxCell>
        <mxCell id="v8Acyuk8rxpxtJH2wYaN-24" value="" style="line;strokeWidth=2;direction=south;html=1;hachureGap=4;fontFamily=Architects Daughter;fontSource=https://fonts.googleapis.com/css?family=Architects+Daughter;strokeColor=#000000;aspect=fixed;" vertex="1" parent="v8Acyuk8rxpxtJH2wYaN-32">
          <mxGeometry x="300" y="305" width="10" height="35" as="geometry" />
        </mxCell>
        <mxCell id="v8Acyuk8rxpxtJH2wYaN-25" value="" style="line;strokeWidth=2;direction=south;html=1;hachureGap=4;fontFamily=Architects Daughter;fontSource=https://fonts.googleapis.com/css?family=Architects+Daughter;strokeColor=#000000;aspect=fixed;" vertex="1" parent="v8Acyuk8rxpxtJH2wYaN-32">
          <mxGeometry x="300" y="210" width="10" height="60" as="geometry" />
        </mxCell>
        <mxCell id="v8Acyuk8rxpxtJH2wYaN-26" value="&lt;b&gt;&lt;font color=&quot;#000000&quot; face=&quot;Comic Sans MS&quot; style=&quot;font-size: 16px;&quot;&gt;par&lt;/font&gt;&lt;/b&gt;" style="text;strokeColor=none;align=center;fillColor=none;html=1;verticalAlign=middle;whiteSpace=wrap;rounded=0;fontFamily=Architects Daughter;fontSource=https%3A%2F%2Ffonts.googleapis.com%2Fcss%3Ffamily%3DArchitects%2BDaughter;aspect=fixed;" vertex="1" parent="v8Acyuk8rxpxtJH2wYaN-32">
          <mxGeometry x="14.5" y="265" width="81" height="30" as="geometry" />
        </mxCell>
        <mxCell id="v8Acyuk8rxpxtJH2wYaN-28" value="" style="group;aspect=fixed;" vertex="1" connectable="0" parent="v8Acyuk8rxpxtJH2wYaN-32">
          <mxGeometry x="245" y="265" width="120" height="40" as="geometry" />
        </mxCell>
        <mxCell id="v8Acyuk8rxpxtJH2wYaN-12" value="" style="shape=trapezoid;perimeter=trapezoidPerimeter;whiteSpace=wrap;html=1;fixedSize=1;rounded=0;labelBackgroundColor=none;strokeColor=#0F140C;strokeWidth=2;align=center;verticalAlign=middle;fontFamily=Helvetica;fontSize=12;fontColor=default;fillColor=#d5e8d4;aspect=fixed;" vertex="1" parent="v8Acyuk8rxpxtJH2wYaN-28">
          <mxGeometry width="120" height="40" as="geometry" />
        </mxCell>
        <mxCell id="v8Acyuk8rxpxtJH2wYaN-27" value="&lt;b&gt;&lt;font face=&quot;Comic Sans MS&quot; color=&quot;#000000&quot; style=&quot;font-size: 16px;&quot;&gt;impar&lt;/font&gt;&lt;/b&gt;" style="text;strokeColor=none;align=center;fillColor=none;html=1;verticalAlign=middle;whiteSpace=wrap;rounded=0;fontFamily=Architects Daughter;fontSource=https%3A%2F%2Ffonts.googleapis.com%2Fcss%3Ffamily%3DArchitects%2BDaughter;aspect=fixed;" vertex="1" parent="v8Acyuk8rxpxtJH2wYaN-28">
          <mxGeometry x="30" y="5" width="60" height="30" as="geometry" />
        </mxCell>
        <mxCell id="v8Acyuk8rxpxtJH2wYaN-30" value="" style="group;aspect=fixed;" vertex="1" connectable="0" parent="v8Acyuk8rxpxtJH2wYaN-32">
          <mxGeometry x="145" y="370" width="60" height="40" as="geometry" />
        </mxCell>
        <mxCell id="v8Acyuk8rxpxtJH2wYaN-3" value="" style="strokeWidth=2;html=1;shape=mxgraph.flowchart.start_2;whiteSpace=wrap;rounded=0;labelBackgroundColor=none;strokeColor=#000000;align=center;verticalAlign=middle;fontFamily=Helvetica;fontSize=12;fontColor=default;fillColor=#d5e8d4;aspect=fixed;" vertex="1" parent="v8Acyuk8rxpxtJH2wYaN-30">
          <mxGeometry x="10" width="40" height="40" as="geometry" />
        </mxCell>
        <mxCell id="v8Acyuk8rxpxtJH2wYaN-29" value="&lt;font face=&quot;Comic Sans MS&quot; color=&quot;#000000&quot;&gt;&lt;span style=&quot;font-size: 16px;&quot;&gt;&lt;b&gt;F&lt;/b&gt;&lt;/span&gt;&lt;/font&gt;" style="text;strokeColor=none;align=center;fillColor=none;html=1;verticalAlign=middle;whiteSpace=wrap;rounded=0;fontFamily=Architects Daughter;fontSource=https%3A%2F%2Ffonts.googleapis.com%2Fcss%3Ffamily%3DArchitects%2BDaughter;aspect=fixed;" vertex="1" parent="v8Acyuk8rxpxtJH2wYaN-30">
          <mxGeometry y="5" width="60" height="30" as="geometry" />
        </mxCell>
        <mxCell id="v8Acyuk8rxpxtJH2wYaN-22" value="" style="line;strokeWidth=2;direction=south;html=1;hachureGap=4;fontFamily=Architects Daughter;fontSource=https://fonts.googleapis.com/css?family=Architects+Daughter;strokeColor=#000000;aspect=fixed;" vertex="1" parent="v8Acyuk8rxpxtJH2wYaN-30">
          <mxGeometry x="25" y="-30" width="10" height="30" as="geometry" />
        </mxCell>
      </root>
    </mxGraphModel>
  </diagram>
</mxfile>
